<svg width="120" height="120" viewBox="0 0 120 120" fill="none" xmlns="http://www.w3.org/2000/svg">
<circle cx="60" cy="60" r="60" fill="#191919"/>
<path d="M49.384 37.392V42.128H37.224V82H31.4V42.128H19.176V37.392H49.384ZM76.777 82.448C72.6383 82.448 68.8623 81.488 65.449 79.568C62.0357 77.6053 59.3263 74.896 57.321 71.44C55.3583 67.9413 54.377 64.016 54.377 59.664C54.377 55.312 55.3583 51.408 57.321 47.952C59.3263 44.4533 62.0357 41.744 65.449 39.824C68.8623 37.8613 72.6383 36.88 76.777 36.88C80.9583 36.88 84.7557 37.8613 88.169 39.824C91.5823 41.744 94.2703 44.432 96.233 47.888C98.1957 51.344 99.177 55.2693 99.177 59.664C99.177 64.0587 98.1957 67.984 96.233 71.44C94.2703 74.896 91.5823 77.6053 88.169 79.568C84.7557 81.488 80.9583 82.448 76.777 82.448ZM76.777 77.392C79.8917 77.392 82.6863 76.6667 85.161 75.216C87.6783 73.7653 89.641 71.696 91.049 69.008C92.4997 66.32 93.225 63.2053 93.225 59.664C93.225 56.08 92.4997 52.9653 91.049 50.32C89.641 47.632 87.6997 45.5627 85.225 44.112C82.7503 42.6613 79.9343 41.936 76.777 41.936C73.6197 41.936 70.8037 42.6613 68.329 44.112C65.8543 45.5627 63.8917 47.632 62.441 50.32C61.033 52.9653 60.329 56.08 60.329 59.664C60.329 63.2053 61.033 66.32 62.441 69.008C63.8917 71.696 65.8543 73.7653 68.329 75.216C70.8463 76.6667 73.6623 77.392 76.777 77.392Z" fill="#3B82F6"/>
</svg>
